<?xml version="1.0" ?><!DOCTYPE svg  PUBLIC '-//W3C//DTD SVG 1.1//EN'  'http://www.w3.org/Graphics/SVG/1.1/DTD/svg11.dtd'><svg height="10px" id="Layer_1" style="enable-background:new 0 0 14 10;" version="1.1" viewBox="0 0 14 10" width="14px" xml:space="preserve" xmlns="http://www.w3.org/2000/svg" xmlns:xlink="http://www.w3.org/1999/xlink"><g id="Menu_2"><path d="M1,2h12c0.552,0,1-0.447,1-1s-0.448-1-1-1H1C0.448,0,0,0.447,0,1   S0.448,2,1,2z" style="fill-rule:evenodd;clip-rule:evenodd;"/><path d="M13,4H1C0.448,4,0,4.447,0,5s0.448,1,1,1h12c0.552,0,1-0.447,1-1   S13.552,4,13,4z" style="fill-rule:evenodd;clip-rule:evenodd;"/><path d="M13,8H1C0.448,8,0,8.447,0,9s0.448,1,1,1h12c0.552,0,1-0.447,1-1   S13.552,8,13,8z" style="fill-rule:evenodd;clip-rule:evenodd;"/></g><g/><g/><g/><g/><g/><g/><g/><g/><g/><g/><g/><g/><g/><g/><g/></svg>